<svg xmlns="http://www.w3.org/2000/svg" width="24" height="24"><path d="M18 13.18V10a6 6 0 0 0-5-5.91V3a1 1 0 0 0-2 0v1.09A6 6 0 0 0 6 10v3.18A3 3 0 0 0 4 16v2a1 1 0 0 0 1 1h3.14a4 4 0 0 0 7.72 0H19a1 1 0 0 0 1-1v-2a3 3 0 0 0-2-2.82zM8 10a4 4 0 0 1 8 0v3H8v-3zm4 10a2 2 0 0 1-1.72-1h3.44A2 2 0 0 1 12 20zm6-3H6v-1a1 1 0 0 1 1-1h10a1 1 0 0 1 1 1v1z" fill="#fff"/><ellipse fill="#f36b6b" stroke="#f55151" ry="1.551" rx="1.599" cy="5.26" cx="16.565"/><ellipse stroke="#ff5656" ry="3.585" rx="3.478" cy="6.649" cx="16.434" fill="#ff5656"/></svg>