<svg xmlns="http://www.w3.org/2000/svg" viewBox="0 0 24 24"><path fill="#fff" d="M3.71 16.29a1 1 0 0 0-.33-.21 1 1 0 0 0-.76 0 1 1 0 0 0-.33.21 1 1 0 0 0-.21.33 1 1 0 0 0 .21 1.09 1.15 1.15 0 0 0 .33.21.94.94 0 0 0 .76 0 1.15 1.15 0 0 0 .33-.21 1 1 0 0 0 .21-1.09 1 1 0 0 0-.21-.33zM7 8h14a1 1 0 0 0 0-2H7a1 1 0 0 0 0 2zm-3.29 3.29a1 1 0 0 0-1.09-.21 1.15 1.15 0 0 0-.33.21 1 1 0 0 0-.21.33.94.94 0 0 0 0 .76 1.15 1.15 0 0 0 .21.33 1.15 1.15 0 0 0 .33.21.94.94 0 0 0 .76 0 1.15 1.15 0 0 0 .33-.21 1.15 1.15 0 0 0 .21-.33.94.94 0 0 0 0-.76 1 1 0 0 0-.21-.33zM21 11H7a1 1 0 0 0 0 2h14a1 1 0 0 0 0-2zM3.71 6.29a1 1 0 0 0-.33-.21 1 1 0 0 0-1.09.21 1.15 1.15 0 0 0-.21.33.94.94 0 0 0 0 .76 1.15 1.15 0 0 0 .21.33 1.15 1.15 0 0 0 .33.21 1 1 0 0 0 1.09-.21 1.15 1.15 0 0 0 .21-.33.94.94 0 0 0 0-.76 1.15 1.15 0 0 0-.21-.33zM21 16H7a1 1 0 0 0 0 2h14a1 1 0 0 0 0-2z"/></svg>