<svg xmlns="http://www.w3.org/2000/svg" width="288" height="288"><svg width="288" height="288" fill="none" viewBox="0 0 48 48"><path fill="#fff" fill-opacity=".01" d="M0 0h48v48H0z"/><g stroke="#fff" stroke-width="4"><path d="M24 44c11.046 0 20-8.954 20-20S35.046 4 24 4 4 12.954 4 24s8.954 20 20 20z"/><path d="M4 20.84c3.015-1.424 5.245-1.622 6.689-.595 2.167 1.541 2.439 7.819 7.368 4.818s-2.111-4.223-.582-8.57 6.533-.97 7.031-5.731c.332-3.174-3.465-4.389-11.39-3.643"/><path stroke-linecap="round" d="M36 8c-5.714 4.989-7.71 8.001-5.987 9.037 2.584 1.554 3.681-.634 6.834 0s2.471 4.908.812 4.908-10.249-1.094-9.816 3.919 5.599 5.755 5.599 8.556c0 1.867-1.143 4.725-3.43 8.573M6.105 32.926l2.055-.874c3.847-1.554 6.702-1.921 8.564-1.099 3.293 1.453 2.027 4.387 3.058 5.468s3.606.767 3.606 2.823c0 1.371-.46 2.92-1.382 4.646"/></g></svg></svg>